<svg width="302" height="94" viewBox="0 0 302 94" fill="none" xmlns="http://www.w3.org/2000/svg">
<circle cx="3.37319" cy="74.3877" r="3.37319" fill="#2B2B2B"/>
<circle cx="18.9964" cy="90.0108" r="3.37319" fill="#2B2B2B"/>
<circle cx="26.8079" cy="90.0108" r="3.37319" fill="#2B2B2B"/>
<circle cx="11.1848" cy="90.0108" r="3.37319" fill="#2B2B2B"/>
<circle cx="34.6196" cy="82.1992" r="3.37319" fill="#2B2B2B"/>
<circle cx="3.37319" cy="82.1992" r="3.37319" fill="#2B2B2B"/>
<circle cx="34.6196" cy="74.3877" r="3.37319" fill="#2B2B2B"/>
<circle cx="26.8079" cy="74.3877" r="3.37319" fill="#2B2B2B"/>
<circle cx="18.9964" cy="74.3877" r="3.37319" fill="#2B2B2B"/>
<circle cx="11.1848" cy="74.3877" r="3.37319" fill="#2B2B2B"/>
<circle cx="11.1848" cy="58.7645" r="3.37319" fill="#2B2B2B"/>
<circle cx="34.6196" cy="66.5761" r="3.37319" fill="#2B2B2B"/>
<circle cx="26.8079" cy="66.5761" r="3.37319" fill="#2B2B2B"/>
<circle cx="18.9964" cy="66.5761" r="3.37319" fill="#2B2B2B"/>
<circle cx="11.1848" cy="66.5761" r="3.37319" fill="#2B2B2B"/>
<circle cx="3.37319" cy="66.5761" r="3.37319" fill="#2B2B2B"/>
<circle cx="26.8079" cy="58.7645" r="3.37319" fill="#2B2B2B"/>
<circle cx="18.9964" cy="58.7645" r="3.37319" fill="#2B2B2B"/>
<circle cx="34.6196" cy="35.3297" r="3.37319" fill="#2B2B2B"/>
<circle cx="3.37319" cy="58.7645" r="3.37319" fill="#2B2B2B"/>
<circle cx="34.6196" cy="58.7645" r="3.37319" fill="#2B2B2B"/>
<circle cx="34.6196" cy="50.9528" r="3.37319" fill="#2B2B2B"/>
<circle cx="34.6196" cy="43.1413" r="3.37319" fill="#2B2B2B"/>
<circle cx="26.8079" cy="3.37319" r="3.37319" fill="#2B2B2B"/>
<circle cx="3.37319" cy="50.9528" r="3.37319" fill="#2B2B2B"/>
<circle cx="3.37319" cy="43.1413" r="3.37319" fill="#2B2B2B"/>
<circle cx="18.9964" cy="19.7065" r="3.37319" fill="#2B2B2B"/>
<circle cx="26.8079" cy="19.7065" r="3.37319" fill="#2B2B2B"/>
<circle cx="11.1848" cy="19.7065" r="3.37319" fill="#2B2B2B"/>
<circle cx="34.6196" cy="27.5181" r="3.37319" fill="#2B2B2B"/>
<circle cx="18.9964" cy="35.3297" r="3.37319" fill="#2B2B2B"/>
<circle cx="26.8079" cy="35.3297" r="3.37319" fill="#2B2B2B"/>
<circle cx="11.1848" cy="35.3297" r="3.37319" fill="#2B2B2B"/>
<circle cx="3.37319" cy="27.5181" r="3.37319" fill="#2B2B2B"/>
<circle cx="3.37319" cy="35.3297" r="3.37319" fill="#2B2B2B"/>
<circle cx="26.8079" cy="11.5399" r="3.37319" fill="#2B2B2B"/>
<path d="M80.3017 36.9275C84.8579 36.9275 87.136 38.5424 87.136 41.7721V43.7566C87.136 44.671 86.8565 45.4396 86.2975 46.0622C85.7664 46.6847 84.9418 47.1517 83.8237 47.463C86.1996 48.0467 87.3876 49.3308 87.3876 51.3153V53.6208C87.3876 56.6949 85.0955 58.2319 80.5113 58.2319H65.3333V36.9275H80.3017ZM68.5198 56.0431H79.9663C82.7894 56.0431 84.201 55.1189 84.201 53.2706V51.0234C84.201 49.2724 82.6916 48.3969 79.6728 48.3969H70.197V46.4415H79.6728C82.5798 46.4415 84.0333 45.6244 84.0333 43.9901V42.1223C84.0333 40.1183 82.6217 39.1163 79.7986 39.1163H68.5198V56.0431Z" fill="#2B2B2B"/>
<path d="M113.087 36.9275V39.1163H98.7891C95.966 39.1163 94.5544 40.1183 94.5544 42.1223V53.0371C94.5544 55.0411 95.966 56.0431 98.7891 56.0431H107.007C109.551 56.0431 110.823 55.1579 110.823 53.3874V48.0759H102.143V46.1205H113.799V53.9127C113.799 56.7922 111.745 58.2319 107.636 58.2319H98.2021C93.6459 58.2319 91.3678 56.6171 91.3678 53.3874V41.7721C91.3678 38.5424 93.6459 36.9275 98.2021 36.9275H113.087Z" fill="#2B2B2B"/>
<path d="M136.281 50.9943L129.53 39.4374L118.713 58.2319H115.401L127.853 36.9275H131.291L144.038 58.2319H140.474L137.455 53.0371H123.409L124.541 50.9943H136.281Z" fill="#2B2B2B"/>
<path d="M182.418 42.9978C186.918 42.9978 189.169 44.6224 189.169 47.8716V58.2319H186.108V48.2218C186.108 46.14 184.682 45.0991 181.831 45.0991H174.578V58.2319H171.643V45.0991H160.07V58.2319H157.051V42.9978H182.418Z" fill="#2B2B2B"/>
<path d="M207.312 42.9978C211.868 42.9978 214.146 44.6224 214.146 47.8716V53.3582C214.146 56.6073 211.868 58.2319 207.312 58.2319H199.597C195.712 58.2319 193.769 56.8894 193.769 54.2045V53.008C193.769 50.7511 195.614 49.6226 199.303 49.6226H209.408V51.3445H200.1C197.836 51.3445 196.704 52.0157 196.704 53.3582V54.0586C196.704 55.6151 197.85 56.3933 200.142 56.3933H206.809C209.66 56.3933 211.085 55.3621 211.085 53.2998V48.0759C211.085 46.0719 209.702 45.0699 206.934 45.0699H194.44V42.9978H207.312Z" fill="#2B2B2B"/>
<path d="M236.484 42.9978V44.8364H224.074C222.201 44.8364 221.264 45.4396 221.264 46.6458V47.8424C221.264 48.9514 222.131 49.5059 223.864 49.5059H232.669C235.855 49.5059 237.449 50.5468 237.449 52.6286V54.8466C237.449 57.1035 235.73 58.2319 232.292 58.2319H218.497V56.3933H231.495C233.479 56.3933 234.472 55.7902 234.472 54.5839V52.862C234.472 51.753 233.619 51.1985 231.914 51.1985H223.109C219.895 51.1985 218.287 50.1576 218.287 48.0759V46.354C218.287 44.1165 219.965 42.9978 223.319 42.9978H236.484Z" fill="#2B2B2B"/>
<path d="M247.47 38.0365V42.9978H252.208V44.8948H247.47V58.2319H244.409V44.8948H240.3V42.9978H244.409V38.0365H247.47Z" fill="#2B2B2B"/>
<path d="M269.903 42.9978C273.817 42.9978 275.773 44.3403 275.773 47.0252V48.251C275.773 50.4884 273.928 51.6071 270.239 51.6071H260.092V49.8853H269.4C271.664 49.8853 272.796 49.214 272.796 47.8716V47.1711C272.796 45.6147 271.65 44.8364 269.358 44.8364H262.733C259.854 44.8364 258.415 45.8676 258.415 47.9299V53.1539C258.415 55.1579 259.812 56.1598 262.608 56.1598H275.06V58.2319H262.23C257.674 58.2319 255.396 56.6073 255.396 53.3582V47.8716C255.396 44.6224 257.674 42.9978 262.23 42.9978H269.903Z" fill="#2B2B2B"/>
<path d="M293.29 43.027V45.1283H287.923C285.044 45.1283 283.604 46.1692 283.604 48.251V58.2319H280.543V47.9007C280.543 44.6516 282.822 43.027 287.378 43.027H293.29Z" fill="#2B2B2B"/>
<path d="M80.3017 36.9275C84.8579 36.9275 87.136 38.5424 87.136 41.7721V43.7566C87.136 44.671 86.8565 45.4396 86.2975 46.0622C85.7664 46.6847 84.9418 47.1517 83.8237 47.463C86.1996 48.0467 87.3876 49.3308 87.3876 51.3153V53.6208C87.3876 56.6949 85.0955 58.2319 80.5113 58.2319H65.3333V36.9275H80.3017ZM68.5198 56.0431H79.9663C82.7894 56.0431 84.201 55.1189 84.201 53.2706V51.0234C84.201 49.2724 82.6916 48.3969 79.6728 48.3969H70.197V46.4415H79.6728C82.5798 46.4415 84.0333 45.6244 84.0333 43.9901V42.1223C84.0333 40.1183 82.6217 39.1163 79.7986 39.1163H68.5198V56.0431Z" stroke="#2B2B2B"/>
<path d="M113.087 36.9275V39.1163H98.7891C95.966 39.1163 94.5544 40.1183 94.5544 42.1223V53.0371C94.5544 55.0411 95.966 56.0431 98.7891 56.0431H107.007C109.551 56.0431 110.823 55.1579 110.823 53.3874V48.0759H102.143V46.1205H113.799V53.9127C113.799 56.7922 111.745 58.2319 107.636 58.2319H98.2021C93.6459 58.2319 91.3678 56.6171 91.3678 53.3874V41.7721C91.3678 38.5424 93.6459 36.9275 98.2021 36.9275H113.087Z" stroke="#2B2B2B"/>
<path d="M136.281 50.9943L129.53 39.4374L118.713 58.2319H115.401L127.853 36.9275H131.291L144.038 58.2319H140.474L137.455 53.0371H123.409L124.541 50.9943H136.281Z" stroke="#2B2B2B"/>
<path d="M182.418 42.9978C186.918 42.9978 189.169 44.6224 189.169 47.8716V58.2319H186.108V48.2218C186.108 46.14 184.682 45.0991 181.831 45.0991H174.578V58.2319H171.643V45.0991H160.07V58.2319H157.051V42.9978H182.418Z" stroke="#2B2B2B"/>
<path d="M207.312 42.9978C211.868 42.9978 214.146 44.6224 214.146 47.8716V53.3582C214.146 56.6073 211.868 58.2319 207.312 58.2319H199.597C195.712 58.2319 193.769 56.8894 193.769 54.2045V53.008C193.769 50.7511 195.614 49.6226 199.303 49.6226H209.408V51.3445H200.1C197.836 51.3445 196.704 52.0157 196.704 53.3582V54.0586C196.704 55.6151 197.85 56.3933 200.142 56.3933H206.809C209.66 56.3933 211.085 55.3621 211.085 53.2998V48.0759C211.085 46.0719 209.702 45.0699 206.934 45.0699H194.44V42.9978H207.312Z" stroke="#2B2B2B"/>
<path d="M236.484 42.9978V44.8364H224.074C222.201 44.8364 221.264 45.4396 221.264 46.6458V47.8424C221.264 48.9514 222.131 49.5059 223.864 49.5059H232.669C235.855 49.5059 237.449 50.5468 237.449 52.6286V54.8466C237.449 57.1035 235.73 58.2319 232.292 58.2319H218.497V56.3933H231.495C233.479 56.3933 234.472 55.7902 234.472 54.5839V52.862C234.472 51.753 233.619 51.1985 231.914 51.1985H223.109C219.895 51.1985 218.287 50.1576 218.287 48.0759V46.354C218.287 44.1165 219.965 42.9978 223.319 42.9978H236.484Z" stroke="#2B2B2B"/>
<path d="M247.47 38.0365V42.9978H252.208V44.8948H247.47V58.2319H244.409V44.8948H240.3V42.9978H244.409V38.0365H247.47Z" stroke="#2B2B2B"/>
<path d="M269.903 42.9978C273.817 42.9978 275.773 44.3403 275.773 47.0252V48.251C275.773 50.4884 273.928 51.6071 270.239 51.6071H260.092V49.8853H269.4C271.664 49.8853 272.796 49.214 272.796 47.8716V47.1711C272.796 45.6147 271.65 44.8364 269.358 44.8364H262.733C259.854 44.8364 258.415 45.8676 258.415 47.9299V53.1539C258.415 55.1579 259.812 56.1598 262.608 56.1598H275.06V58.2319H262.23C257.674 58.2319 255.396 56.6073 255.396 53.3582V47.8716C255.396 44.6224 257.674 42.9978 262.23 42.9978H269.903Z" stroke="#2B2B2B"/>
<path d="M293.29 43.027V45.1283H287.923C285.044 45.1283 283.604 46.1692 283.604 48.251V58.2319H280.543V47.9007C280.543 44.6516 282.822 43.027 287.378 43.027H293.29Z" stroke="#2B2B2B"/>
<circle r="2.69565" transform="matrix(-1 0 0 1 60.0073 69.2391)" fill="#2B2B2B" stroke="#2B2B2B"/>
<circle r="2.69565" transform="matrix(-1 0 0 1 128.181 69.2391)" fill="#2B2B2B" stroke="#2B2B2B"/>
<circle r="2.69565" transform="matrix(-1 0 0 1 187.833 69.2391)" fill="#2B2B2B" stroke="#2B2B2B"/>
<circle r="2.69565" transform="matrix(-1 0 0 1 179.312 69.2391)" fill="#2B2B2B" stroke="#2B2B2B"/>
<circle r="2.69565" transform="matrix(-1 0 0 1 170.79 69.2391)" fill="#2B2B2B" stroke="#2B2B2B"/>
<circle r="2.69565" transform="matrix(-1 0 0 1 162.268 69.2391)" fill="#2B2B2B" stroke="#2B2B2B"/>
<circle r="2.69565" transform="matrix(-1 0 0 1 153.746 69.2391)" fill="#2B2B2B" stroke="#2B2B2B"/>
<circle r="2.69565" transform="matrix(-1 0 0 1 145.225 69.2391)" fill="#2B2B2B" stroke="#2B2B2B"/>
<circle r="2.69565" transform="matrix(-1 0 0 1 136.703 69.2391)" fill="#2B2B2B" stroke="#2B2B2B"/>
<circle r="2.69565" transform="matrix(-1 0 0 1 68.529 69.2391)" fill="#2B2B2B" stroke="#2B2B2B"/>
<circle r="2.69565" transform="matrix(-1 0 0 1 119.66 69.2391)" fill="#2B2B2B" stroke="#2B2B2B"/>
<circle r="2.69565" transform="matrix(-1 0 0 1 111.138 69.2391)" fill="#2B2B2B" stroke="#2B2B2B"/>
<circle r="2.69565" transform="matrix(-1 0 0 1 102.616 69.2391)" fill="#2B2B2B" stroke="#2B2B2B"/>
<circle r="2.69565" transform="matrix(-1 0 0 1 94.0942 69.2391)" fill="#2B2B2B" stroke="#2B2B2B"/>
<circle r="2.69565" transform="matrix(-1 0 0 1 85.5725 69.2391)" fill="#2B2B2B" stroke="#2B2B2B"/>
<circle r="2.69565" transform="matrix(-1 0 0 1 77.0507 69.2391)" fill="#2B2B2B" stroke="#2B2B2B"/>
<circle r="2.69565" transform="matrix(-1 0 0 1 196.355 69.2391)" fill="#2B2B2B" stroke="#2B2B2B"/>
<circle r="2.69565" transform="matrix(-1 0 0 1 264.529 69.2391)" fill="#2B2B2B" stroke="#2B2B2B"/>
<circle r="2.69565" transform="matrix(-1 0 0 1 298.616 69.2391)" fill="#2B2B2B" stroke="#2B2B2B"/>
<circle r="2.69565" transform="matrix(-1 0 0 1 290.094 69.2391)" fill="#2B2B2B" stroke="#2B2B2B"/>
<circle r="2.69565" transform="matrix(-1 0 0 1 281.572 69.2391)" fill="#2B2B2B" stroke="#2B2B2B"/>
<circle r="2.69565" transform="matrix(-1 0 0 1 273.051 69.2391)" fill="#2B2B2B" stroke="#2B2B2B"/>
<circle r="2.69565" transform="matrix(-1 0 0 1 204.877 69.2391)" fill="#2B2B2B" stroke="#2B2B2B"/>
<circle r="2.69565" transform="matrix(-1 0 0 1 256.007 69.2391)" fill="#2B2B2B" stroke="#2B2B2B"/>
<circle r="2.69565" transform="matrix(-1 0 0 1 247.486 69.2391)" fill="#2B2B2B" stroke="#2B2B2B"/>
<circle r="2.69565" transform="matrix(-1 0 0 1 238.964 69.2391)" fill="#2B2B2B" stroke="#2B2B2B"/>
<circle r="2.69565" transform="matrix(-1 0 0 1 230.442 69.2391)" fill="#2B2B2B" stroke="#2B2B2B"/>
<circle r="2.69565" transform="matrix(-1 0 0 1 221.92 69.2391)" fill="#2B2B2B" stroke="#2B2B2B"/>
<circle r="2.69565" transform="matrix(-1 0 0 1 213.399 69.2391)" fill="#2B2B2B" stroke="#2B2B2B"/>
</svg>
